<?xml version="1.0" encoding="utf-8"?>
<!-- Generator: Adobe Illustrator 23.1.1, SVG Export Plug-In . SVG Version: 6.00 Build 0)  -->
<svg version="1.1" id="Layer_1" xmlns="http://www.w3.org/2000/svg" xmlns:xlink="http://www.w3.org/1999/xlink" x="0px" y="0px"
	 viewBox="0 0 527 527" enable-background="new 0 0 527 527" xml:space="preserve">
<path id="Asterisco" fill="#FC6865" d="M292.453,29.184c0.102-7.938-3.076-15.566-8.785-21.082c-5.41-5.439-12.825-8.406-20.494-8.2
	c-15.493-0.677-28.602,11.334-29.279,26.827c-0.036,0.817-0.036,1.635,0,2.452v164.546L100.972,64.317
	c-11.547-11.32-30.083-11.136-41.403,0.41c-5.408,5.516-8.416,12.945-8.371,20.67c-0.073,7.932,3.101,15.548,8.785,21.08
	l130.58,127.654H28.945c-15.493-0.676-28.601,11.336-29.277,26.83c-0.036,0.816-0.036,1.633,0,2.449
	c-0.206,7.669,2.761,15.084,8.2,20.494c5.515,5.707,13.141,8.886,21.077,8.785h160.448L62.324,412.729
	c-5.486,5.427-8.637,12.779-8.785,20.494c-0.453,7.772,2.298,15.391,7.613,21.08c5.783,6.049,12.617,9.173,20.5,9.371
	c7.877,0.415,15.554-2.571,21.08-8.2l131.163-124.139v166.3c-0.207,7.671,2.76,15.088,8.2,20.5
	c5.517,5.707,13.143,8.884,21.08,8.783c16.006-0.39,28.889-13.273,29.279-29.279v-164.55l128.237,126.484
	c5.3,5.673,12.737,8.86,20.5,8.784c7.769,0.117,15.221-3.077,20.494-8.784c5.768-5.475,8.958-13.129,8.785-21.08
	c-0.051-7.735-3.218-15.123-8.785-20.494l-127.652-125.31h163.37c16.005-0.392,28.887-13.274,29.277-29.279
	c0.102-7.937-3.076-15.563-8.783-21.08c-5.411-5.439-12.825-8.406-20.494-8.2H332.857l128.825-130.58
	c11.481-11.155,11.745-29.506,0.589-40.987c-0.194-0.199-0.39-0.396-0.589-0.589c-5.643-5.45-13.238-8.404-21.08-8.2
	c-7.735,0.052-15.122,3.219-20.494,8.785L292.453,191.971V29.184z"/>
</svg>
