<?xml version="1.0" encoding="UTF-8"?>
<svg version="1.1" xmlns="http://www.w3.org/2000/svg" width="200" height="200">
<path d="M0 0 C1.88387924 -0.01279495 1.88387924 -0.01279495 3.80581665 -0.02584839 C5.18493665 -0.02514946 6.56405655 -0.02422645 7.94317627 -0.02310181 C9.4056533 -0.0290908 10.86812717 -0.0358972 12.33059692 -0.04345703 C16.29361359 -0.06108865 20.25654381 -0.06581127 24.21959591 -0.0670886 C26.69919413 -0.06851261 29.17877055 -0.07278699 31.65836334 -0.07808304 C40.31939584 -0.09657544 48.98036687 -0.10475483 57.64141846 -0.10317993 C65.69736075 -0.10197944 73.75303474 -0.12306565 81.80890918 -0.15466726 C88.73907815 -0.18087794 95.66915976 -0.19154519 102.59937787 -0.19026911 C106.73231017 -0.18976079 110.86500401 -0.19537133 114.99788666 -0.21662521 C118.88862374 -0.23608815 122.77889693 -0.23607767 126.66965103 -0.22159195 C128.09096332 -0.21951253 129.51230526 -0.22415268 130.93356705 -0.23631287 C142.42486935 -0.32819834 151.37039986 1.29709477 159.89727783 9.34164429 C165.78870646 15.81040668 168.89144679 22.80182331 168.91860962 31.61624146 C168.93140457 33.5001207 168.93140457 33.5001207 168.94445801 35.42205811 C168.94375908 36.80117811 168.94283607 38.18029801 168.94171143 39.55941772 C168.94770042 41.02189475 168.95450682 42.48436863 168.96206665 43.94683838 C168.97969827 47.90985504 168.98442089 51.87278527 168.98569822 55.83583736 C168.98712223 58.31543558 168.99139661 60.795012 168.99669266 63.2746048 C169.01518506 71.9356373 169.02336445 80.59660833 169.02178955 89.25765991 C169.02058905 97.31360221 169.04167527 105.3692762 169.07327688 113.42515063 C169.09948756 120.3553196 169.11015481 127.28540121 169.10887873 134.21561933 C169.10837041 138.34855162 169.11398095 142.48124547 169.13523483 146.61412811 C169.15469777 150.50486519 169.15468729 154.39513838 169.14020157 158.28589249 C169.13812215 159.70720477 169.1427623 161.12854671 169.15492249 162.5498085 C169.24680796 174.04111081 167.62151485 182.98664132 159.57696533 191.51351929 C153.10820294 197.40494791 146.11678631 200.50768824 137.30236816 200.53485107 C136.04644867 200.54338104 134.79052917 200.55191101 133.49655151 200.56069946 C132.11743151 200.56000054 130.73831161 200.55907753 129.35919189 200.55795288 C127.89671487 200.56394187 126.43424099 200.57074827 124.97177124 200.57830811 C121.00875458 200.59593973 117.04582435 200.60066234 113.08277225 200.60193968 C110.60317403 200.60336369 108.12359762 200.60763807 105.64400482 200.61293411 C96.98297232 200.63142651 88.32200129 200.6396059 79.66094971 200.63803101 C71.60500741 200.63683051 63.54933342 200.65791673 55.49345899 200.68951833 C48.56329002 200.71572901 41.63320841 200.72639627 34.70299029 200.72512019 C30.570058 200.72461187 26.43736415 200.73022241 22.30448151 200.75147629 C18.41374443 200.77093922 14.52347124 200.77092875 10.63271713 200.75644302 C9.21140484 200.7543636 7.79006291 200.75900376 6.36880112 200.77116394 C-5.12250119 200.86304941 -14.0680317 199.23775631 -22.59490967 191.19320679 C-28.48633829 184.7244444 -31.58907862 177.73302776 -31.61624146 168.91860962 C-31.62477142 167.66269012 -31.63330139 166.40677063 -31.64208984 165.11279297 C-31.64139092 163.73367297 -31.64046791 162.35455307 -31.63934326 160.97543335 C-31.64533225 159.51295632 -31.65213866 158.05048245 -31.65969849 156.5880127 C-31.67733011 152.62499603 -31.68205272 148.66206581 -31.68333006 144.69901371 C-31.68475407 142.21941549 -31.68902845 139.73983907 -31.69432449 137.26024628 C-31.71281689 128.59921378 -31.72099628 119.93824275 -31.71942139 111.27719116 C-31.71822089 103.22124887 -31.73930711 95.16557488 -31.77090871 87.10970044 C-31.7971194 80.17953147 -31.80778665 73.24944986 -31.80651057 66.31923175 C-31.80600225 62.18629945 -31.81161279 58.05360561 -31.83286667 53.92072296 C-31.8523296 50.02998588 -31.85231913 46.13971269 -31.8378334 42.24895859 C-31.83575398 40.8276463 -31.84039414 39.40630436 -31.85255432 37.98504257 C-31.94443979 26.49374027 -30.31914669 17.54820976 -22.27459717 9.02133179 C-15.80583478 3.12990316 -8.81441814 0.02716283 0 0 Z " fill="#FB6866" transform="translate(31.34881591796875,-0.267425537109375)"/>
<path d="M0 0 C5.61 0 11.22 0 17 0 C17 14.19 17 28.38 17 43 C21.62 43 26.24 43 31 43 C31.04125 41.989375 31.0825 40.97875 31.125 39.9375 C31.82872732 35.10914868 34.45303826 32.19703726 38 29 C45.15840433 23.83182468 52.22577739 22.63782558 60.8125 22.625 C61.66392578 22.60050781 62.51535156 22.57601562 63.39257812 22.55078125 C72.07745496 22.51109407 79.1857904 25.4496855 85.55859375 31.37890625 C89.75793428 36.10174181 90.57133019 41.35258934 90.33984375 47.4453125 C89.53031339 53.53074763 87.32706773 58.3013519 82.5625 62.25 C75.69309228 66.86798172 67.60444269 69.31643645 59.6875 71.5 C54.89239448 72.85769763 51.05066673 75.13737798 47 78 C47.54140625 77.83886719 48.0828125 77.67773438 48.640625 77.51171875 C56.22440816 75.86689161 63.64586138 76.97127211 71 79 C75.15550475 79.45208455 75.15550475 79.45208455 78.8125 77.8125 C80.27538036 75.57968261 80.64505955 73.62655933 81 71 C84.3 71 87.6 71 91 71 C91.44386627 78.39777121 91.77350435 84.94188286 87 91 C80.10011011 96.49174909 73.57032156 96.86998945 65 96 C61.5775153 94.88515874 58.33652047 93.5369154 55.02734375 92.125 C50.68641205 90.51185377 47.57684276 90.39975833 43 91 C42.34 91.99 41.68 92.98 41 94 C38.6171875 94.29296875 38.6171875 94.29296875 35.875 94.1875 C34.96492188 94.16042969 34.05484375 94.13335937 33.1171875 94.10546875 C32.41851562 94.07066406 31.71984375 94.03585938 31 94 C30.46529692 85.08828198 30.73812376 78.98405575 36.63671875 72.0859375 C42.13634151 66.66194806 48.67970787 63.19750928 55.52783203 59.76416016 C60.78441958 57.03898381 64.80522396 54.07345824 68 49 C68.98173173 45.52618004 68.8083388 42.51270757 68 39 C65.47323961 35.65374976 63.96066458 34.32022153 60 33 C54.03465173 32.60231012 50.26078349 33.11172671 45 36 C43.07663031 38.02946853 43.07663031 38.02946853 42 40 C43.3303125 39.8453125 43.3303125 39.8453125 44.6875 39.6875 C48 40 48 40 50.875 42.0625 C53 45 53 45 53.5625 48.5 C52.91877781 52.50538252 51.84054174 54.15945826 49 57 C45.83350487 58.58324757 42.42541806 58.64374236 39 58 C38.09507813 57.34902344 37.19015625 56.69804688 36.2578125 56.02734375 C32.21035417 53.5086017 29.28574679 53.34270925 24.625 53.25 C23.52091797 53.20552734 23.52091797 53.20552734 22.39453125 53.16015625 C20.5969257 53.09011967 18.7984621 53.04271881 17 53 C17.72981706 55.98204219 17.72981706 55.98204219 19 59 C22.52451159 60.46022435 22.52451159 60.46022435 26 61 C26 64.3 26 67.6 26 71 C13.46 71 0.92 71 -12 71 C-12 67.7 -12 64.4 -12 61 C-9.36 60.34 -6.72 59.68 -4 59 C-3.67 57.02 -3.34 55.04 -3 53 C-14.22 53 -25.44 53 -37 53 C-37 42 -37 42 -35.12890625 38.90625 C-34.28199219 38.1121875 -33.43507813 37.318125 -32.5625 36.5 C-31.64597656 35.5925 -30.72945312 34.685 -29.78515625 33.75 C-28.86605469 32.8425 -27.94695313 31.935 -27 31 C-25.47394743 29.18829509 -23.97300593 27.35509155 -22.5 25.5 C-18.62404846 20.69957238 -14.54684177 16.1303997 -10.37109375 11.58984375 C-7.6235005 8.58876579 -4.94321378 5.53452883 -2.27734375 2.4609375 C-1.54167701 1.61953273 -0.79030613 0.79030613 0 0 Z " fill="#FDFAF9" transform="translate(55,50)"/>
<path d="M0 0 C2.85741196 4.28611794 2.96754559 7.97620561 2 13 C-1.12459714 18.42644532 -6.06688631 22.86376534 -12 25 C-15.32379578 25.25597576 -18.45612176 24.89314467 -21.75 24.4375 C-22.59949219 24.34919922 -23.44898437 24.26089844 -24.32421875 24.16992188 C-28.81016215 23.6277818 -30.82317298 23.27476701 -34 20 C-37.19245998 19.41907008 -37.19245998 19.41907008 -40.6875 19.3125 C-41.86699219 19.24675781 -43.04648438 19.18101563 -44.26171875 19.11328125 C-45.16535156 19.07589844 -46.06898437 19.03851563 -47 19 C-44.9927092 22.0109362 -44.16115776 22.63016497 -41 24 C-41 24.33 -41 24.66 -41 25 C-46.42857143 25.36190476 -46.42857143 25.36190476 -48.875 23.8125 C-50.34090576 21.45076295 -50.08049828 19.73246924 -50 17 C-47.45716766 16.89128033 -44.91904912 16.81237599 -42.375 16.75 C-41.66214844 16.71648437 -40.94929688 16.68296875 -40.21484375 16.6484375 C-34.91213208 16.55114004 -32.35336138 17.78013186 -28 21 C-24.92749496 21.80562971 -23.28362904 21.46908986 -20 21 C-16.85341334 19.10350449 -16.85341334 19.10350449 -15 16 C-14.36872515 12.00192592 -14.32082516 9.99264015 -16.625 6.625 C-19.43845613 4.7000037 -21.6333163 4.30606215 -25 4 C-23.60440273 0.6273066 -22.1078412 -1.08045102 -19 -3 C-11.87606346 -5.79868936 -5.94297596 -4.16008317 0 0 Z " fill="#F86A68" transform="translate(122,86)"/>
<path d="M0 0 C6.27 0 12.54 0 19 0 C19 9.24 19 18.48 19 28 C20.65 28 22.3 28 24 28 C24 29.98 24 31.96 24 34 C16.41 34 8.82 34 1 34 C1 32.02 1 30.04 1 28 C2.65 28 4.3 28 6 28 C6 20.74 6 13.48 6 6 C4.02 6 2.04 6 0 6 C0 4.02 0 2.04 0 0 Z " fill="#FDF1F0" transform="translate(154,111)"/>
<path d="M0 0 C0.33 0 0.66 0 1 0 C1 7.92 1 15.84 1 24 C-5.93 24 -12.86 24 -20 24 C-17.96260868 20.6043478 -16.59720019 18.3473569 -14.00390625 15.625 C-13.44509766 15.03203125 -12.88628906 14.4390625 -12.31054688 13.828125 C-11.73369141 13.22484375 -11.15683594 12.6215625 -10.5625 12 C-7.48301199 8.75770441 -4.44585179 5.55787113 -1.65234375 2.0625 C-0.83443359 1.0415625 -0.83443359 1.0415625 0 0 Z " fill="#F86B68" transform="translate(52,68)"/>
<path d="M0 0 C2.4375 1.5625 2.4375 1.5625 4 4 C4.5625 7.5 4.5625 7.5 4 11 C1.9375 13.5 1.9375 13.5 -1 15 C-4.8137751 15 -7.02424548 14.84985071 -9.9375 12.3125 C-11.33817538 9.26397123 -11.4842732 7.32073048 -11 4 C-8.05899778 -0.47032338 -5.13105401 -0.73300772 0 0 Z " fill="#FEF8F8" transform="translate(169,91)"/>
<path d="M0 0 C0.66 0.33 1.32 0.66 2 1 C2.1953125 7.0546875 2.1953125 7.0546875 2 9 C1.34 9.66 0.68 10.32 0 11 C0.66 11.33 1.32 11.66 2 12 C2.33 11.01 2.66 10.02 3 9 C4.98 9.33 6.96 9.66 9 10 C5.38443298 13.11340493 2.87836357 15.032867 -1.96704102 14.97753906 C-4.16744408 14.74861064 -6.36547685 14.50956392 -8.5625 14.25 C-9.33013672 14.17523438 -10.09777344 14.10046875 -10.88867188 14.0234375 C-15.13698329 13.53452982 -17.0769963 12.98336794 -20 10 C-23.19245998 9.41907008 -23.19245998 9.41907008 -26.6875 9.3125 C-27.86699219 9.24675781 -29.04648438 9.18101563 -30.26171875 9.11328125 C-31.61716797 9.05720703 -31.61716797 9.05720703 -33 9 C-30.9927092 12.0109362 -30.16115776 12.63016497 -27 14 C-27 14.33 -27 14.66 -27 15 C-32.42857143 15.36190476 -32.42857143 15.36190476 -34.875 13.8125 C-36.34090576 11.45076295 -36.08049828 9.73246924 -36 7 C-33.45716766 6.89128033 -30.91904912 6.81237599 -28.375 6.75 C-27.66214844 6.71648437 -26.94929688 6.68296875 -26.21484375 6.6484375 C-20.91213208 6.55114004 -18.35336138 7.78013186 -14 11 C-10.92749496 11.80562971 -9.28362904 11.46908986 -6 11 C-2.47151716 8.4474805 -1.22698105 6.92538426 -0.1875 2.6875 C-0.125625 1.800625 -0.06375 0.91375 0 0 Z " fill="#EB8182" transform="translate(108,96)"/>
<path d="M0 0 C0.99 0.495 0.99 0.495 2 1 C2 14.2 2 27.4 2 41 C5.63 41 9.26 41 13 41 C13 39.35 13 37.7 13 36 C14 33.6875 14 33.6875 15 32 C15.99 32.33 16.98 32.66 18 33 C17.525625 33.9075 17.05125 34.815 16.5625 35.75 C14.84801455 39.03625582 14.84801455 39.03625582 14 43 C9.38 43 4.76 43 0 43 C0 28.81 0 14.62 0 0 Z " fill="#ED837F" transform="translate(72,50)"/>
<path d="M0 0 C-1.29299694 2.88437779 -2.65941363 4.87219421 -5 7 C-5 6.34 -5 5.68 -5 5 C-6.85454862 5.45678538 -8.70861949 5.9155106 -10.5625 6.375 C-11.59503906 6.63023438 -12.62757812 6.88546875 -13.69140625 7.1484375 C-17.14832468 8.03817566 -20.57190123 9.00572167 -24 10 C-23.43490723 10.11069824 -22.86981445 10.22139648 -22.28759766 10.33544922 C-19.73176122 10.84072772 -17.17843122 11.35771005 -14.625 11.875 C-13.73554687 12.04902344 -12.84609375 12.22304687 -11.9296875 12.40234375 C-11.07890625 12.57636719 -10.228125 12.75039062 -9.3515625 12.9296875 C-8.56604004 13.08679199 -7.78051758 13.24389648 -6.97119141 13.40576172 C-5 14 -5 14 -3 16 C-4.58367747 15.85795259 -6.16693318 15.71119847 -7.75 15.5625 C-8.63171875 15.48128906 -9.5134375 15.40007812 -10.421875 15.31640625 C-13 15 -13 15 -14.9609375 14.4765625 C-21.41115458 12.9690405 -28.95221632 13.31209614 -35 16 C-29.96310301 7.60517168 -18.76269873 5.44009116 -9.9453125 2.89453125 C-7.00144461 2.04799673 -7.00144461 2.04799673 -4.2421875 0.88671875 C-2 0 -2 0 0 0 Z " fill="#E87879" transform="translate(135,114)"/>
<path d="M0 0 C-1 1 -1 1 -3.5625 1.0625 C-4.7690625 1.0315625 -4.7690625 1.0315625 -6 1 C-5.67 2.98 -5.34 4.96 -5 7 C11.335 7.495 11.335 7.495 28 8 C28 5.69 28 3.38 28 1 C26.68 0.67 25.36 0.34 24 0 C25.98 0 27.96 0 30 0 C30 3.3 30 6.6 30 10 C17.46 10 4.92 10 -8 10 C-8 6.7 -8 3.4 -8 0 C-2.25 -1.125 -2.25 -1.125 0 0 Z " fill="#FED8D4" transform="translate(51,111)"/>
<path d="M0 0 C0.33 0 0.66 0 1 0 C1 7.92 1 15.84 1 24 C-5.93 24 -12.86 24 -20 24 C-17 19 -17 19 -15 18 C-15 19.32 -15 20.64 -15 22 C-8.07 22.495 -8.07 22.495 -1 23 C-1.33 17.39 -1.66 11.78 -2 6 C-2.99 6 -3.98 6 -5 6 C-3.35830472 3.97945196 -1.69088222 1.97956942 0 0 Z " fill="#E88382" transform="translate(52,68)"/>
<path d="M0 0 C11.22 0 22.44 0 34 0 C34 1.98 34 3.96 34 6 C30.77208445 8.1519437 29.71599191 8.20086443 26 8 C29.625 5 29.625 5 33 5 C33 4.01 33 3.02 33 2 C22.44 2 11.88 2 1 2 C0.67 1.34 0.34 0.68 0 0 Z " fill="#E98787" transform="translate(18,103)"/>
<path d="M0 0 C0.66 0 1.32 0 2 0 C2 1.98 2 3.96 2 6 C9.59 6 17.18 6 25 6 C25 4.02 25 2.04 25 0 C25.33 0 25.66 0 26 0 C26 1.65 26 3.3 26 5 C26.66 5 27.32 5 28 5 C28 5.99 28 6.98 28 8 C24.55565831 8.79600171 21.51576563 9.08507976 17.98828125 8.9140625 C17.06595703 8.87023437 16.14363281 8.82640625 15.19335938 8.78125 C14.24267578 8.7296875 13.29199219 8.678125 12.3125 8.625 C11.35021484 8.58117187 10.38792969 8.53734375 9.39648438 8.4921875 C2.26357582 8.13178791 2.26357582 8.13178791 0 7 C0 4.69 0 2.38 0 0 Z " fill="#E97676" transform="translate(153,139)"/>
<path d="M0 0 C0 2.62113708 -0.31292445 4.50935112 -1 7 C-0.01 7.33 0.98 7.66 2 8 C2.33 16.58 2.66 25.16 3 34 C4.485 34.495 4.485 34.495 6 35 C6 35.66 6 36.32 6 37 C4.35 37 2.7 37 1 37 C1 27.76 1 18.52 1 9 C-3.95 9 -8.9 9 -14 9 C-14 8.67 -14 8.34 -14 8 C-10.37 8 -6.74 8 -3 8 C-3.33 7.34 -3.66 6.68 -4 6 C-7.02934491 5.34227572 -7.02934491 5.34227572 -10 5 C-9.67 4.34 -9.34 3.68 -9 3 C-6.66752239 2.66073053 -4.33414529 2.32759934 -2 2 C-1.34 1.34 -0.68 0.68 0 0 Z " fill="#E67370" transform="translate(172,102)"/>
<path d="M0 0 C0.66 0.33 1.32 0.66 2 1 C2.1953125 7.0546875 2.1953125 7.0546875 2 9 C1.34 9.66 0.68 10.32 0 11 C0.66 11.33 1.32 11.66 2 12 C2.33 11.01 2.66 10.02 3 9 C5.97 9.495 5.97 9.495 9 10 C3.43533123 14.79179811 3.43533123 14.79179811 0 15 C-3.25 14.0625 -3.25 14.0625 -6 13 C-6 12.34 -6 11.68 -6 11 C-5.195625 10.2575 -4.39125 9.515 -3.5625 8.75 C-0.71287976 5.69187096 -0.28527911 4.08900062 0 0 Z " fill="#F46C66" transform="translate(108,96)"/>
<path d="M0 0 C1.85772162 0.08984301 3.71247985 0.24611861 5.5625 0.4375 C7.08037109 0.59025391 7.08037109 0.59025391 8.62890625 0.74609375 C9.80259766 0.87177734 9.80259766 0.87177734 11 1 C11 1.66 11 2.32 11 3 C6.05 5.475 6.05 5.475 1 8 C0.34 5.69 -0.32 3.38 -1 1 C-0.67 0.67 -0.34 0.34 0 0 Z " fill="#F56C6D" transform="translate(97,109)"/>
<path d="M0 0 C0.66 1.32 1.32 2.64 2 4 C1.01 4.495 1.01 4.495 0 5 C-0.66 4.67 -1.32 4.34 -2 4 C-2.26941406 4.57621094 -2.53882813 5.15242188 -2.81640625 5.74609375 C-4.0206018 8.03923181 -5.37511405 9.99919642 -6.9375 12.0625 C-7.44152344 12.73410156 -7.94554687 13.40570313 -8.46484375 14.09765625 C-9.88503966 15.85754279 -11.36860486 17.43678256 -13 19 C-13.99 18.67 -14.98 18.34 -16 18 C-15.43152344 17.3709375 -14.86304688 16.741875 -14.27734375 16.09375 C-9.4728318 10.76788032 -4.70399152 5.41488413 0 0 Z " fill="#FDE0DE" transform="translate(54,51)"/>
<path d="M0 0 C0.66 0.33 1.32 0.66 2 1 C1.0409375 2.3921875 1.0409375 2.3921875 0.0625 3.8125 C-2.68530068 8.05910105 -3.18907543 11.22628784 -3.5625 16.1875 C-3.64628906 17.27417969 -3.73007813 18.36085937 -3.81640625 19.48046875 C-3.87699219 20.31191406 -3.93757813 21.14335937 -4 22 C-0.7 22 2.6 22 6 22 C6 22.33 6 22.66 6 23 C2.37 23 -1.26 23 -5 23 C-5.1358035 20.28996573 -5.23444624 17.58681059 -5.3125 14.875 C-5.35439453 14.11445313 -5.39628906 13.35390625 -5.43945312 12.5703125 C-5.53121736 8.31245197 -5.26200485 5.78315583 -2.48046875 2.4453125 C-1.66191406 1.63835937 -0.84335938 0.83140625 0 0 Z " fill="#F28485" transform="translate(90,122)"/>
<path d="M0 0 C0.84433594 0.00322266 1.68867187 0.00644531 2.55859375 0.00976562 C3.86763672 0.02233398 3.86763672 0.02233398 5.203125 0.03515625 C6.09128906 0.03966797 6.97945312 0.04417969 7.89453125 0.04882812 C10.08079829 0.06058225 12.26692679 0.07701376 14.453125 0.09765625 C14.453125 0.42765625 14.453125 0.75765625 14.453125 1.09765625 C13.29554687 1.11183594 12.13796875 1.12601563 10.9453125 1.140625 C9.40621128 1.18754882 7.86715001 1.23579607 6.328125 1.28515625 C5.56757812 1.29095703 4.80703125 1.29675781 4.0234375 1.30273438 C-1.814264 1.52919693 -4.4204718 2.96466135 -8.546875 7.09765625 C-8.546875 5.11765625 -8.546875 3.13765625 -8.546875 1.09765625 C-5.6220117 0.25573843 -3.03945844 -0.02053688 0 0 Z " fill="#E57373" transform="translate(57.546875,48.90234375)"/>
<path d="M0 0 C1.77503906 0.03480469 1.77503906 0.03480469 3.5859375 0.0703125 C5.36871094 0.09738281 5.36871094 0.09738281 7.1875 0.125 C8.10273438 0.14820312 9.01796875 0.17140625 9.9609375 0.1953125 C9.9609375 0.8553125 9.9609375 1.5153125 9.9609375 2.1953125 C10.6209375 2.1953125 11.2809375 2.1953125 11.9609375 2.1953125 C11.6309375 3.1853125 11.3009375 4.1753125 10.9609375 5.1953125 C10.4453125 4.7003125 9.9296875 4.2053125 9.3984375 3.6953125 C6.07296814 1.64886981 3.79787337 1.77673768 -0.0390625 2.1953125 C-2.0390625 3.1953125 -2.0390625 3.1953125 -3.0390625 5.1953125 C-3.7659851 8.30370271 -3.7659851 8.30370271 -4.0390625 11.1953125 C-4.3690625 11.1953125 -4.6990625 11.1953125 -5.0390625 11.1953125 C-5.09305986 9.73738366 -5.13185427 8.27888538 -5.1640625 6.8203125 C-5.19886719 5.60214844 -5.19886719 5.60214844 -5.234375 4.359375 C-4.90142797 0.67032194 -3.52867537 0.22677862 0 0 Z " fill="#E97778" transform="translate(162.0390625,89.8046875)"/>
<path d="M0 0 C0.66 0.33 1.32 0.66 2 1 C2.43489791 6.30575444 2.43489791 6.30575444 2 9 C-0.3125 11.0625 -0.3125 11.0625 -3 12 C-3.99 11.67 -4.98 11.34 -6 11 C-4.7934375 9.948125 -4.7934375 9.948125 -3.5625 8.875 C-0.76566189 5.73708407 -0.28691249 4.11241237 0 0 Z " fill="#F07E80" transform="translate(108,96)"/>
<path d="M0 0 C2.72977064 -0.08126109 5.4571017 -0.14061663 8.1875 -0.1875 C9.34088867 -0.22520508 9.34088867 -0.22520508 10.51757812 -0.26367188 C15.15260383 -0.32335032 18.26770105 -0.08905704 22 3 C22 3.66 22 4.32 22 5 C17.125 3.125 17.125 3.125 16 2 C13.30764224 1.76321284 10.63501844 1.57801975 7.9375 1.4375 C7.17888672 1.39431641 6.42027344 1.35113281 5.63867188 1.30664062 C3.75934562 1.20026367 1.87969756 1.09960066 0 1 C0 0.67 0 0.34 0 0 Z " fill="#FEEFEB" transform="translate(72,102)"/>
<path d="M0 0 C1 2 1 2 0.3984375 3.83984375 C-1.75547248 8.2545371 -3.31850554 10.91933579 -8 13 C-7.1875 11.0625 -7.1875 11.0625 -6 9 C-5.01 8.67 -4.02 8.34 -3 8 C-2.814375 6.8553125 -2.814375 6.8553125 -2.625 5.6875 C-2 3 -2 3 0 0 Z " fill="#FEE6E3" transform="translate(145,131)"/>
<path d="M0 0 C-1.29299694 2.88437779 -2.65941363 4.87219421 -5 7 C-5 6.34 -5 5.68 -5 5 C-5.99 5 -6.98 5 -8 5 C-7.67 4.01 -7.34 3.02 -7 2 C-4.56723614 0.81480735 -2.71982714 0 0 0 Z " fill="#F17377" transform="translate(135,114)"/>
<path d="M0 0 C0.33 0 0.66 0 1 0 C2.32124352 5.02072539 2.32124352 5.02072539 2 8 C0.01849932 10.77513838 -2.34282432 12.87956055 -5 15 C-5.66 14.67 -6.32 14.34 -7 14 C-6.57847656 13.57589844 -6.15695313 13.15179688 -5.72265625 12.71484375 C-1.76753928 8.48054205 -0.2371383 5.80988828 0 0 Z " fill="#FEE1DD" transform="translate(124,92)"/>
<path d="M0 0 C1.32 0.33 2.64 0.66 4 1 C3.02433888 2.16959987 2.044375 3.33561177 1.0625 4.5 C0.51722656 5.1496875 -0.02804688 5.799375 -0.58984375 6.46875 C-1.05519531 6.9740625 -1.52054688 7.479375 -2 8 C-2.33 8 -2.66 8 -3 8 C-3 6.35 -3 4.7 -3 3 C-2.01 2.67 -1.02 2.34 0 2 C0 1.34 0 0.68 0 0 Z " fill="#EE7577" transform="translate(29,75)"/>
<path d="M0 0 C9.41002278 -0.3690205 9.41002278 -0.3690205 14 2 C14 2.33 14 2.66 14 3 C12.41590006 2.88512252 10.83271037 2.75765492 9.25 2.625 C8.36828125 2.55539063 7.4865625 2.48578125 6.578125 2.4140625 C4.00933618 2.00149945 2.24158985 1.28839043 0 0 Z " fill="#EB7F80" transform="translate(118,127)"/>
<path d="M0 0 C5.67276511 -0.29341888 8.99067246 -0.00559652 14 3 C10.71023192 4.09658936 9.28696233 3.79953138 6 3 C6 2.34 6 1.68 6 1 C4.02 1 2.04 1 0 1 C0 0.67 0 0.34 0 0 Z " fill="#EB767B" transform="translate(107,82)"/>
<path d="M0 0 C3 1 3 1 4 3 C4.04022391 5.3329866 4.04320247 7.66706666 4 10 C3.01 10.495 3.01 10.495 2 11 C2.04125 10.29875 2.0825 9.5975 2.125 8.875 C1.98331668 5.61628372 1.13265314 3.0440053 0 0 Z " fill="#FEE7E2" transform="translate(169,92)"/>
<path d="M0 0 C0.99 0.33 1.98 0.66 3 1 C1.63016497 4.16115776 1.0109362 4.9927092 -2 7 C-2.99 6.67 -3.98 6.34 -5 6 C-3.35 4.02 -1.7 2.04 0 0 Z " fill="#FEE9E8" transform="translate(43,63)"/>
<path d="M0 0 C-2.68841859 2.25245881 -4.64641875 3.88213958 -8 5 C-8 3.68 -8 2.36 -8 1 C-5.07175348 0.02391783 -3.04386724 -0.08226668 0 0 Z " fill="#E87778" transform="translate(100,75)"/>
<path d="M0 0 C2.97 0.495 2.97 0.495 6 1 C3.31158141 3.25245881 1.35358125 4.88213958 -2 6 C-2 5.34 -2 4.68 -2 4 C-1.34 4 -0.68 4 0 4 C0 2.68 0 1.36 0 0 Z " fill="#EF797A" transform="translate(111,105)"/>
<path d="M0 0 C-3.22515763 1.73662334 -6.51329166 2.8905928 -10 4 C-9.67 3.01 -9.34 2.02 -9 1 C-6.04335481 -0.4783226 -3.25770263 -0.06032783 0 0 Z " fill="#FDE6DD" transform="translate(169,91)"/>
<path d="M0 0 C0.33 0.66 0.66 1.32 1 2 C0.525625 2.45375 0.05125 2.9075 -0.4375 3.375 C-2.09027808 4.93258204 -2.09027808 4.93258204 -3 7 C-3.99 7 -4.98 7 -6 7 C-4.60667426 3.63279613 -3.0210714 2.0140476 0 0 Z " fill="#E77D81" transform="translate(103,83)"/>
<path d="M0 0 C1.32 0.33 2.64 0.66 4 1 C4.33 3.31 4.66 5.62 5 8 C2.74754119 5.31158141 1.11786042 3.35358125 0 0 Z " fill="#ED7275" transform="translate(139,79)"/>
<path d="M0 0 C1.32 0 2.64 0 4 0 C3.6875 1.875 3.6875 1.875 3 4 C2.01 4.66 1.02 5.32 0 6 C0 4.02 0 2.04 0 0 Z " fill="#F06C71" transform="translate(49,50)"/>
</svg>
