<?xml version="1.0" encoding="UTF-8"?>
<svg version="1.1" xmlns="http://www.w3.org/2000/svg" width="281" height="178">
<path d="M0 0 C10.23 0 20.46 0 31 0 C31 24.42 31 48.84 31 74 C37.93 74 44.86 74 52 74 C52.66 71.03 53.32 68.06 54 65 C59.62960196 53.39221392 69.38874495 46.32587219 81.17578125 41.7734375 C88.45299724 39.35060391 95.34998531 38.22048915 103 38 C104.79050781 37.94005859 104.79050781 37.94005859 106.6171875 37.87890625 C112.79340173 37.7679172 118.16782931 37.77317119 124 40 C125.04414063 40.38800781 126.08828125 40.77601562 127.1640625 41.17578125 C140.93115063 46.34988643 140.93115063 46.34988643 145 51 C145 51.66 145 52.32 145 53 C145.66 53 146.32 53 147 53 C154.31269484 62.22710316 157.07102664 71.35471034 156 83 C154.42067014 93.25900828 150.93617291 99.86023982 143.0625 106.5625 C131.43137774 114.9728327 117.43734873 119.07438261 103.87866211 123.23217773 C92.04244603 126.87915185 92.04244603 126.87915185 82 134 C83.71123047 133.51466797 83.71123047 133.51466797 85.45703125 133.01953125 C89.91093965 131.9121735 94.11203091 131.65512757 98.6875 131.6875 C99.46697998 131.68951416 100.24645996 131.69152832 101.04956055 131.69360352 C107.97963863 131.81231549 114.33370841 133.13806906 121 135 C124.40754891 135.82072062 127.20354708 136.08380704 130.6875 135.6875 C131.45449219 135.60886719 132.22148437 135.53023437 133.01171875 135.44921875 C135.21958746 135.13633989 135.21958746 135.13633989 137 133 C137.64493442 130.37542675 137.64493442 130.37542675 138.0625 127.4375 C138.90277778 122.09722222 138.90277778 122.09722222 140 121 C142.86267567 120.92674832 145.700719 120.90761795 148.5625 120.9375 C149.36880859 120.94201172 150.17511719 120.94652344 151.00585938 120.95117188 C153.00393756 120.96299482 155.00197783 120.98093086 157 121 C159.82905791 131.02425364 157.62681042 143.86163778 153 153 C148.53015965 160.00274988 141.79020961 163.00402936 134 165 C130.67555868 165.46505109 127.41692592 165.571029 124.0625 165.5625 C123.15733643 165.5622583 122.25217285 165.5620166 121.31958008 165.56176758 C111.84554136 165.32601266 103.69498329 162.53263713 95 159 C88.91431108 156.53861102 83.65113798 154.74291207 77 156 C74.17575712 158.19022918 72.58491397 159.83017207 71 163 C67.10068034 164.1242564 63.28718314 164.1341339 59.25 164.125 C58.10015625 164.12757813 56.9503125 164.13015625 55.765625 164.1328125 C53 164 53 164 52 163 C51.10252964 150.34713914 51.35996345 137.91083673 60 127.8125 C61.63307056 126.17414442 63.30139641 124.57031026 65 123 C65.85335937 122.19046875 66.70671875 121.3809375 67.5859375 120.546875 C75.51150277 113.48712779 84.37703451 108.54172113 93.58837891 103.37011719 C97.41702721 101.19494263 101.18621806 98.93052986 104.9375 96.625 C105.59331055 96.23248047 106.24912109 95.83996094 106.92480469 95.43554688 C113.8196415 91.16852609 116.7377637 86.64404673 118.65625 78.91796875 C119.35808382 72.96035668 117.28195029 68.18406346 114.3125 63.125 C108.78781559 58.04826298 102.47539019 55.89452712 95 56 C88.66613317 57.00537569 82.24378067 59.22798677 77 63 C75.67817399 65.56145344 75.67817399 65.56145344 75 68 C76.7325 67.7834375 76.7325 67.7834375 78.5 67.5625 C83.44077826 67.53612574 85.8426111 69.82139839 89.3359375 73.078125 C92.7435089 77.01362999 93.5775677 80.4270023 93.43359375 85.55078125 C92.60670745 90.22157141 90.34271416 93.69153496 87 97 C81.37108419 100.21215305 75.03566639 100.96353281 68.7421875 99.4609375 C65.14066148 98.37929107 62.5855859 97.52712253 59.74780273 94.97265625 C56.49792234 92.63955687 54.78235124 92.46861776 50.82421875 92.390625 C49.08881836 92.34228516 49.08881836 92.34228516 47.31835938 92.29296875 C46.12017578 92.27878906 44.92199219 92.26460938 43.6875 92.25 C42.46998047 92.22035156 41.25246094 92.19070312 39.99804688 92.16015625 C36.99863167 92.08958177 33.9999883 92.03682136 31 92 C31.26233397 93.45956156 31.54162962 94.91608191 31.828125 96.37109375 C31.9818457 97.18247803 32.13556641 97.9938623 32.29394531 98.82983398 C32.87296654 101.31659448 32.87296654 101.31659448 35.75 103.0625 C39.02231778 104.00643782 41.61715348 104.1573417 45 104 C46 105 46 105 46.09765625 108.81640625 C46.09098089 110.39846682 46.07901875 111.98051159 46.0625 113.5625 C46.05798828 114.36880859 46.05347656 115.17511719 46.04882812 116.00585938 C46.03700518 118.00393756 46.01906914 120.00197783 46 122 C43.25334611 123.37332694 41.06375932 123.11964892 37.98974609 123.11352539 C36.72858978 123.11344986 35.46743347 123.11337433 34.1680603 123.11329651 C32.78651897 123.10818949 31.40497804 123.10297349 30.0234375 123.09765625 C28.6138209 123.09579144 27.20420366 123.09436783 25.79458618 123.09336853 C22.08246068 123.08954833 18.37037422 123.07972228 14.65826416 123.06866455 C10.87113981 123.05843975 7.08400917 123.05386862 3.296875 123.04882812 C-4.13543448 123.03809958 -11.56771177 123.02102911 -19 123 C-20.59412284 119.81175432 -20.10174735 116.37103338 -20.0625 112.875 C-20.05798828 112.12089844 -20.05347656 111.36679688 -20.04882812 110.58984375 C-20.03703499 108.72652873 -20.01909942 106.86325445 -20 105 C-19.16855469 104.85304688 -18.33710937 104.70609375 -17.48046875 104.5546875 C-10.67679234 103.38579925 -10.67679234 103.38579925 -5.75 99 C-4.87873219 96.03031695 -4.87873219 96.03031695 -5 93 C-24.14 93 -43.28 93 -63 93 C-65.92110274 87.15779451 -64.24930376 77.22769182 -63 71 C-61.3723325 68.12155493 -59.90091718 66.7433324 -57.29296875 64.75390625 C-54.6422258 62.72633626 -52.86088964 60.50648023 -50.8125 57.875 C-46.14032222 52.05299684 -41.09322057 46.64517421 -35.9921875 41.203125 C-32.56650978 37.54766336 -29.26391693 33.80017915 -26 30 C-23.89813546 27.56050731 -21.7934688 25.12345017 -19.6875 22.6875 C-19.12756348 22.03942383 -18.56762695 21.39134766 -17.99072266 20.72363281 C-13.74890715 15.82857036 -9.4212688 11.02532556 -5.0234375 6.26953125 C-3.2413278 4.27067848 -1.60676005 2.14234673 0 0 Z M-8.1796875 36.1328125 C-9.08431366 37.12459872 -9.98226091 38.12250047 -10.875 39.125 C-11.3582373 39.6597998 -11.84147461 40.19459961 -12.33935547 40.74560547 C-16.51632455 45.39488201 -20.58732162 50.13489921 -24.63134766 54.89990234 C-28.46316788 59.40918536 -32.41402925 63.78381856 -36.453125 68.109375 C-38.21107926 69.85085198 -38.21107926 69.85085198 -38 72 C-26.78 72 -15.56 72 -4 72 C-4 59.46 -4 46.92 -4 34 C-6.27001285 33.76687349 -6.27001285 33.76687349 -8.1796875 36.1328125 Z " fill="#FFFFFF" transform="translate(66,4)"/>
<path d="M0 0 C1.28825684 0.01047363 2.57651367 0.02094727 3.90380859 0.03173828 C4.93167984 0.03598312 4.93167984 0.03598312 5.98031616 0.04031372 C8.17113636 0.05151797 10.36154925 0.07662219 12.55224609 0.10205078 C14.03661519 0.1120803 15.5209907 0.1212062 17.00537109 0.12939453 C20.6461287 0.15145784 24.28664766 0.18598903 27.92724609 0.22705078 C29.12559951 2.62375762 29.01464812 4.00603501 28.94897461 6.67675781 C28.92887833 7.59756134 28.90878204 8.51836487 28.88807678 9.46707153 C28.86104172 10.46294281 28.83400665 11.45881409 28.80615234 12.48486328 C28.77073586 14.01214554 28.77073586 14.01214554 28.73460388 15.57028198 C28.65786488 18.83100983 28.57388454 22.09150627 28.48974609 25.35205078 C28.43653566 27.55907061 28.3837952 29.76610181 28.33154297 31.97314453 C28.20223586 37.39126057 28.06643292 42.8091799 27.92724609 48.22705078 C30.89724609 48.55705078 33.86724609 48.88705078 36.92724609 49.22705078 C37.92724609 52.22705078 37.92724609 52.22705078 36.92724609 60.22705078 C23.72724609 60.22705078 10.52724609 60.22705078 -3.07275391 60.22705078 C-3.07275391 56.59705078 -3.07275391 52.96705078 -3.07275391 49.22705078 C-1.02197266 48.77132161 1.02880859 48.31559245 3.07958984 47.85986328 C5.13424904 47.39743555 5.13424904 47.39743555 5.92724609 45.22705078 C6.13803148 41.10380523 6.11304328 36.97904335 6.11254883 32.85083008 C6.114734 30.80089521 6.13289144 28.75149969 6.15185547 26.70166016 C6.15378906 25.41195312 6.15572266 24.12224609 6.15771484 22.79345703 C6.16182373 21.60695557 6.16593262 20.4204541 6.17016602 19.19799805 C6.15385557 16.04149548 6.15385557 16.04149548 3.92724609 13.22705078 C1.5942847 13.18539076 -0.73979251 13.18539076 -3.07275391 13.22705078 C-5.07275391 11.22705078 -5.07275391 11.22705078 -5.33837891 9.13330078 C-5.33064453 7.94220703 -5.33064453 7.94220703 -5.32275391 6.72705078 C-5.32791016 5.93298828 -5.33306641 5.13892578 -5.33837891 4.32080078 C-4.87612269 0.67713414 -3.50148461 0.25873039 0 0 Z " fill="#FFFFFF" transform="translate(241.07275390625,107.77294921875)"/>
<path d="M0 0 C3.94285136 1.81056932 7.1165024 4.0060652 10 7.25 C11.95214708 12.61840446 11.83598434 17.19427382 9.4375 22.375 C6.43189948 25.61180056 4.25127477 26.79547215 0 28 C-4.89779099 28.13967085 -9.18760019 27.15884556 -13 24 C-15.89550431 19.60682104 -16.55878366 16.21531417 -16 11 C-14.16972481 6.46789001 -12.25612939 3.47815374 -8.1875 0.8125 C-5.13863525 -0.31993548 -3.25273931 -0.43786875 0 0 Z " fill="#FFFFFF" transform="translate(259,73)"/>
<path d="M0 0 C10.23 0 20.46 0 31 0 C31 24.42 31 48.84 31 74 C30.34 74 29.68 74 29 74 C29 49.91 29 25.82 29 1 C19.76 1.33 10.52 1.66 1 2 C0.01 3.98 -0.98 5.96 -2 8 C-2.99 8.33 -3.98 8.66 -5 9 C-5.33 9.99 -5.66 10.98 -6 12 C-8.0625 13.6875 -8.0625 13.6875 -10 15 C-10.66 14.67 -11.32 14.34 -12 14 C-11.38511719 13.32453125 -10.77023438 12.6490625 -10.13671875 11.953125 C-9.32847656 11.06109375 -8.52023438 10.1690625 -7.6875 9.25 C-6.88699219 8.36828125 -6.08648437 7.4865625 -5.26171875 6.578125 C-3.41000525 4.4673635 -1.68472446 2.24629928 0 0 Z " fill="#FFFFFF" transform="translate(66,4)"/>
<path d="M0 0 C1.28825684 0.01047363 2.57651367 0.02094727 3.90380859 0.03173828 C4.93167984 0.03598312 4.93167984 0.03598312 5.98031616 0.04031372 C8.17113636 0.05151797 10.36154925 0.07662219 12.55224609 0.10205078 C14.03661519 0.1120803 15.5209907 0.1212062 17.00537109 0.12939453 C20.6461287 0.15145784 24.28664766 0.18598903 27.92724609 0.22705078 C29.12559951 2.62375762 29.01464812 4.00603501 28.94897461 6.67675781 C28.92887833 7.59756134 28.90878204 8.51836487 28.88807678 9.46707153 C28.86104172 10.46294281 28.83400665 11.45881409 28.80615234 12.48486328 C28.77073586 14.01214554 28.77073586 14.01214554 28.73460388 15.57028198 C28.65786488 18.83100983 28.57388454 22.09150627 28.48974609 25.35205078 C28.43653566 27.55907061 28.3837952 29.76610181 28.33154297 31.97314453 C28.20223586 37.39126057 28.06643292 42.8091799 27.92724609 48.22705078 C30.89724609 48.55705078 33.86724609 48.88705078 36.92724609 49.22705078 C37.92724609 52.22705078 37.92724609 52.22705078 36.92724609 60.22705078 C23.72724609 60.22705078 10.52724609 60.22705078 -3.07275391 60.22705078 C-3.07275391 59.89705078 -3.07275391 59.56705078 -3.07275391 59.22705078 C9.79724609 59.22705078 22.66724609 59.22705078 35.92724609 59.22705078 C35.92724609 56.25705078 35.92724609 53.28705078 35.92724609 50.22705078 C34.81349609 50.24767578 33.69974609 50.26830078 32.55224609 50.28955078 C28.92724609 50.22705078 28.92724609 50.22705078 26.92724609 49.22705078 C26.92724609 33.71705078 26.92724609 18.20705078 26.92724609 2.22705078 C17.02724609 2.22705078 7.12724609 2.22705078 -3.07275391 2.22705078 C-3.07275391 5.19705078 -3.07275391 8.16705078 -3.07275391 11.22705078 C-0.76275391 11.22705078 1.54724609 11.22705078 3.92724609 11.22705078 C3.92724609 11.55705078 3.92724609 11.88705078 3.92724609 12.22705078 C0.55224609 12.85205078 0.55224609 12.85205078 -3.07275391 13.22705078 C-5.07275391 11.22705078 -5.07275391 11.22705078 -5.33837891 9.13330078 C-5.33064453 7.94220703 -5.33064453 7.94220703 -5.32275391 6.72705078 C-5.32791016 5.93298828 -5.33306641 5.13892578 -5.33837891 4.32080078 C-4.87612269 0.67713414 -3.50148461 0.25873039 0 0 Z " fill="#FFFFFF" transform="translate(241.07275390625,107.77294921875)"/>
<path d="M0 0 C0.33 0 0.66 0 1 0 C0.85904936 1.6254308 0.71207913 3.25034051 0.5625 4.875 C0.48128906 5.77992188 0.40007812 6.68484375 0.31640625 7.6171875 C0 10 0 10 -1 12 C-1.23274209 14.87910588 -1.41972757 17.74146495 -1.5625 20.625 C-1.60568359 21.42679688 -1.64886719 22.22859375 -1.69335938 23.0546875 C-1.79951457 25.0362511 -1.90026855 27.01810271 -2 29 C2.62 29 7.24 29 12 29 C12.66 27.35 13.32 25.7 14 24 C16.625 23.1875 16.625 23.1875 19 23 C19 22.34 19 21.68 19 21 C26.12600133 20.64631979 31.47059106 21.04328652 38 24 C38 24.66 38 25.32 38 26 C36.93072266 25.7834375 36.93072266 25.7834375 35.83984375 25.5625 C27.96448082 23.89699041 27.96448082 23.89699041 20 24 C17.36983839 26.1727422 15.52663106 27.94673788 14 31 C10.10068034 32.1242564 6.28718314 32.1341339 2.25 32.125 C1.10015625 32.12757813 -0.0496875 32.13015625 -1.234375 32.1328125 C-4 32 -4 32 -5 31 C-5.75730586 20.32322886 -5.14775241 10.99458413 -1 1 C-0.67 0.67 -0.34 0.34 0 0 Z " fill="#FFFFFF" transform="translate(123,136)"/>
<path d="M0 0 C0.75 1.625 0.75 1.625 1 4 C-2.17808219 9.5890411 -2.17808219 9.5890411 -5 11 C-7.31 11 -9.62 11 -12 11 C-12 15.62 -12 20.24 -12 25 C8.13 25 28.26 25 49 25 C49 19.72 49 14.44 49 9 C48.01 8.67 47.02 8.34 46 8 C48.475 8.495 48.475 8.495 51 9 C51 14.61 51 20.22 51 26 C48.25334611 27.37332694 46.06375932 27.11964892 42.98974609 27.11352539 C41.72858978 27.11344986 40.46743347 27.11337433 39.1680603 27.11329651 C37.78651897 27.10818949 36.40497804 27.10297349 35.0234375 27.09765625 C33.6138209 27.09579144 32.20420366 27.09436783 30.79458618 27.09336853 C27.08246068 27.08954833 23.37037422 27.07972228 19.65826416 27.06866455 C15.87113981 27.05843975 12.08400917 27.05386862 8.296875 27.04882812 C0.86456552 27.03809958 -6.56771177 27.02102911 -14 27 C-15.59412284 23.81175432 -15.10174735 20.37103338 -15.0625 16.875 C-15.05798828 16.12089844 -15.05347656 15.36679688 -15.04882812 14.58984375 C-15.03703499 12.72652873 -15.01909942 10.86325445 -15 9 C-13.75283203 8.77957031 -13.75283203 8.77957031 -12.48046875 8.5546875 C-5.59149294 7.38940389 -5.59149294 7.38940389 -0.75 2.8125 C-0.5025 1.884375 -0.255 0.95625 0 0 Z " fill="#FFFFFF" transform="translate(61,100)"/>
<path d="M0 0 C9.9 0 19.8 0 30 0 C30 15.51 30 31.02 30 47 C29.67 47 29.34 47 29 47 C29 31.82 29 16.64 29 1 C19.76 1 10.52 1 1 1 C1 3.31 1 5.62 1 8 C2.093125 7.95875 3.18625 7.9175 4.3125 7.875 C8 8 8 8 11 10 C11.27936935 12.7431774 11.37204948 15.25762183 11.328125 18 C11.32625183 18.79148438 11.32437866 19.58296875 11.32244873 20.3984375 C11.31572192 22.07295947 11.3017949 23.74746556 11.28125 25.421875 C11.25012447 27.98973131 11.24028304 30.55697385 11.234375 33.125 C11.2252039 34.75000751 11.21482778 36.37500875 11.203125 38 C11.19675018 39.15628906 11.19675018 39.15628906 11.19024658 40.3359375 C11.11719973 45.76560054 11.11719973 45.76560054 10 48 C7.93359375 48.4140625 7.93359375 48.4140625 5.4375 48.625 C4.61121094 48.69976562 3.78492188 48.77453125 2.93359375 48.8515625 C2.29550781 48.90054688 1.65742188 48.94953125 1 49 C0.67 48.34 0.34 47.68 0 47 C0.56589844 46.87882812 1.13179687 46.75765625 1.71484375 46.6328125 C2.81505859 46.38144531 2.81505859 46.38144531 3.9375 46.125 C4.66839844 45.96257812 5.39929688 45.80015625 6.15234375 45.6328125 C8.20700294 45.17038477 8.20700294 45.17038477 9 43 C9.21127028 38.91342923 9.18579576 34.82524793 9.18530273 30.73364258 C9.18748048 28.70567568 9.20561582 26.67826062 9.22460938 24.65039062 C9.22654297 23.36712891 9.22847656 22.08386719 9.23046875 20.76171875 C9.23457764 19.58569092 9.23868652 18.40966309 9.24291992 17.19799805 C9.0034725 14.04571481 8.34675084 11.8386185 7 9 C4.69 9 2.38 9 0 9 C0 6.03 0 3.06 0 0 Z " fill="#FFFFFF" transform="translate(238,110)"/>
<path d="M0 0 C0.66 0.33 1.32 0.66 2 1 C2 14.53 2 28.06 2 42 C-10.54 42 -23.08 42 -36 42 C-35.34 40.68 -34.68 39.36 -34 38 C-33.67 38.66 -33.34 39.32 -33 40 C-21.78 40 -10.56 40 1 40 C0.67 36.7 0.34 33.4 0 30 C-0.08706106 27.17563672 -0.14363725 24.384379 -0.125 21.5625 C-0.12306641 20.83748291 -0.12113281 20.11246582 -0.11914062 19.36547852 C-0.07263907 13.54180519 0.30044746 7.78380047 1 2 C0.34 1.67 -0.32 1.34 -1 1 C-0.67 0.67 -0.34 0.34 0 0 Z " fill="#FFFFFF" transform="translate(61,36)"/>
<path d="M0 0 C7.33539922 -0.36676996 16.85802998 -0.31182835 22.8515625 4.48046875 C24 6 24 6 24 8 C24.99 8 25.98 8 27 8 C27 9.32 27 10.64 27 12 C27.66 12 28.32 12 29 12 C29 12.99 29 13.98 29 15 C29.66 15 30.32 15 31 15 C31 19.62 31 24.24 31 29 C30.34 29 29.68 29 29 29 C28.67 29.66 28.34 30.32 28 31 C28.226875 29.88625 28.45375 28.7725 28.6875 27.625 C29.47980133 21.25263356 27.51908835 15.58807645 24.3125 10.125 C18.80219479 5.06147629 12.46043913 2.84556416 5 3 C1.28767768 3.48567947 -2.34915929 4.17429584 -6 5 C-5.34 4.67 -4.68 4.34 -4 4 C-4 3.34 -4 2.68 -4 2 C-2.68 2 -1.36 2 0 2 C0 1.34 0 0.68 0 0 Z " fill="#FFFFFF" transform="translate(156,57)"/>
<path d="M0 0 C0.825 -0.01224609 1.65 -0.02449219 2.5 -0.03710938 C10.17358384 -0.05537981 16.44009218 2.02227838 23.5625 4.8125 C24.70589844 5.25851563 25.84929687 5.70453125 27.02734375 6.1640625 C27.88457031 6.50179687 28.74179688 6.83953125 29.625 7.1875 C25.88290327 8.38658046 24.37521045 7.65449339 20.84375 6.0234375 C8.88062103 1.51620229 -6.86494655 1.93122954 -19.140625 4.84765625 C-21.54218761 5.21292889 -23.08531472 4.93847476 -25.375 4.1875 C-23.64643541 3.7061659 -21.91711929 3.22753029 -20.1875 2.75 C-19.22457031 2.48316406 -18.26164063 2.21632812 -17.26953125 1.94140625 C-11.39128514 0.41036509 -6.05747491 0.00468845 0 0 Z " fill="#FFFFFF" transform="translate(173.375,41.8125)"/>
<path d="M0 0 C5.60461531 0.42089996 10.72086547 0.91613111 16 3 C16 3.66 16 4.32 16 5 C19.64605302 4.85936717 23.29178139 4.71153182 26.9375 4.5625 C27.95908203 4.52318359 28.98066406 4.48386719 30.03320312 4.44335938 C36.06590209 4.19279999 42.007705 3.74356945 48 3 C39.33219798 8.77853468 28.01976266 8.12546476 18 7 C11.77841489 5.64038204 5.88036697 3.41245824 0 1 C0 0.67 0 0.34 0 0 Z " fill="#FFFFFF" transform="translate(161,162)"/>
<path d="M0 0 C0 0.99 0 1.98 0 3 C-0.33 3.33 -0.66 3.66 -1 4 C-1.33 10.27 -1.66 16.54 -2 23 C17.14 23 36.28 23 56 23 C55.67 23.66 55.34 24.32 55 25 C35.86 25 16.72 25 -3 25 C-4.8225109 21.3549782 -3.9339683 17.05684196 -3.75 13.0625 C-3.72292969 12.14275391 -3.69585937 11.22300781 -3.66796875 10.27539062 C-3.62800781 9.39173828 -3.58804687 8.50808594 -3.546875 7.59765625 C-3.51432617 6.78820557 -3.48177734 5.97875488 -3.44824219 5.14477539 C-2.91110669 2.5746581 -1.9934339 1.64913161 0 0 Z " fill="#FFFFFF" transform="translate(6,72)"/>
<path d="M0 0 C0.75 1.625 0.75 1.625 1 4 C-2.17808219 9.5890411 -2.17808219 9.5890411 -5 11 C-7.31 11 -9.62 11 -12 11 C-12 15.62 -12 20.24 -12 25 C-12.66 25 -13.32 25 -14 25 C-14.33 19.72 -14.66 14.44 -15 9 C-13.081875 8.62875 -11.16375 8.2575 -9.1875 7.875 C-4.09879024 6.72014121 -4.09879024 6.72014121 -0.75 2.8125 C-0.5025 1.884375 -0.255 0.95625 0 0 Z " fill="#FFFFFF" transform="translate(61,100)"/>
<path d="M0 0 C0.66 0.66 1.32 1.32 2 2 C0.54207031 1.7834375 0.54207031 1.7834375 -0.9453125 1.5625 C-12.98922057 -0.09985267 -24.8570864 -0.22025656 -37 0 C-29.61518189 -7.38481811 -8.86345688 -3.13674286 0 0 Z " fill="#FFFFFF" transform="translate(187,139)"/>
<path d="M0 0 C0.66 0.33 1.32 0.66 2 1 C1.09729807 4.69287153 0.59508949 6.55368289 -2.5 8.875 C-5 10 -5 10 -7 10 C-7.33 10.99 -7.66 11.98 -8 13 C-8.66 13 -9.32 13 -10 13 C-9.95875 13.680625 -9.9175 14.36125 -9.875 15.0625 C-10.02549965 18.59924168 -10.94375853 21.63323033 -12 25 C-12.99 25 -13.98 25 -15 25 C-13.28232897 14.17867249 -7.94661046 7.31182205 0 0 Z " fill="#FFFFFF" transform="translate(133,53)"/>
<path d="M0 0 C0.66 0.99 1.32 1.98 2 3 C1.01 3.33 0.02 3.66 -1 4 C-1.33 4.66 -1.66 5.32 -2 6 C-2.33 6.66 -2.66 7.32 -3 8 C-3.99 8.33 -4.98 8.66 -6 9 C-6 9.99 -6 10.98 -6 12 C-6.99 12.495 -6.99 12.495 -8 13 C-8.45375 13.763125 -8.9075 14.52625 -9.375 15.3125 C-11.45736557 18.75641228 -13.34219391 21.44739797 -17.25 22.75 C-18.11625 22.87375 -18.11625 22.87375 -19 23 C-17.31680558 18.76619809 -14.27757414 15.86827008 -11.1875 12.625 C-7.31007965 8.52231543 -3.57305581 4.37220507 0 0 Z " fill="#FFFFFF" transform="translate(53,19)"/>
<path d="M0 0 C1.32 0 2.64 0 4 0 C4.02468084 5.09032841 4.04285082 10.18062215 4.05493164 15.27099609 C4.05996682 17.00342414 4.06679532 18.73584792 4.07543945 20.46826172 C4.08754065 22.95541433 4.09323638 25.44251087 4.09765625 27.9296875 C4.10281754 28.70682098 4.10797882 29.48395447 4.11329651 30.28463745 C4.11387171 35.77225659 4.11387171 35.77225659 3 38 C0.93359375 38.4140625 0.93359375 38.4140625 -1.5625 38.625 C-2.38878906 38.69976562 -3.21507812 38.77453125 -4.06640625 38.8515625 C-4.70449219 38.90054688 -5.34257812 38.94953125 -6 39 C-6.33 38.34 -6.66 37.68 -7 37 C-6.43410156 36.87882812 -5.86820313 36.75765625 -5.28515625 36.6328125 C-4.18494141 36.38144531 -4.18494141 36.38144531 -3.0625 36.125 C-2.33160156 35.96257812 -1.60070312 35.80015625 -0.84765625 35.6328125 C1.20700294 35.17038477 1.20700294 35.17038477 2 33 C2.21102648 28.8950916 2.18579648 24.78862027 2.18530273 20.67871094 C2.18748421 18.63976008 2.20563067 16.60135475 2.22460938 14.5625 C2.22654297 13.27601563 2.22847656 11.98953125 2.23046875 10.6640625 C2.23457764 9.48279785 2.23868652 8.3015332 2.24291992 7.08447266 C2.01075286 4.13653428 1.54396561 2.48059474 0 0 Z " fill="#FFFFFF" transform="translate(245,120)"/>
<path d="M0 0 C2.64 0.33 5.28 0.66 8 1 C8 1.66 8 2.32 8 3 C10.72998676 2.88562349 13.4584582 2.75888594 16.1875 2.625 C17.34088867 2.57859375 17.34088867 2.57859375 18.51757812 2.53125 C22.73897711 2.31383889 26.14072328 1.90256928 30 0 C25.99552283 4.80537261 21.70424485 5.74960696 15.625 6.3125 C9.68027714 5.80002389 4.06639427 4.59399606 0 0 Z " fill="#FFFFFF" transform="translate(125,98)"/>
<path d="M0 0 C-7.61571452 3.09003857 -15.30706233 5.84625889 -23.125 8.375 C-23.95427002 8.64973145 -24.78354004 8.92446289 -25.63793945 9.20751953 C-26.41999756 9.45614746 -27.20205566 9.70477539 -28.0078125 9.9609375 C-28.70535645 10.18571777 -29.40290039 10.41049805 -30.12158203 10.64208984 C-32 11 -32 11 -35 10 C-32.75645982 7.40952974 -31.15035639 6.53219719 -27.8046875 5.8671875 C-26.60779297 5.61775391 -26.60779297 5.61775391 -25.38671875 5.36328125 C-24.55785156 5.20214844 -23.72898438 5.04101562 -22.875 4.875 C-21.2259386 4.54213861 -19.57746307 4.20635686 -17.9296875 3.8671875 C-17.19991699 3.72394043 -16.47014648 3.58069336 -15.71826172 3.43310547 C-13.9802793 3.15122359 -13.9802793 3.15122359 -13 2 C-11.33382885 1.95936168 -9.66611905 1.957279 -8 2 C-8 1.34 -8 0.68 -8 0 C-4.90645403 -0.99435406 -3.09720845 -0.87840996 0 0 Z " fill="#FFFFFF" transform="translate(196,118)"/>
<path d="M0 0 C1.24112549 0.02094727 2.48225098 0.04189453 3.76098633 0.06347656 C4.42262283 0.06913635 5.08425934 0.07479614 5.76594543 0.08062744 C7.8757109 0.10298909 9.9837671 0.15317785 12.09301758 0.20410156 C13.52463364 0.22416717 14.95627638 0.24241784 16.38793945 0.25878906 C19.89435272 0.30285088 23.3997683 0.37187379 26.90551758 0.45410156 C26.90551758 0.78410156 26.90551758 1.11410156 26.90551758 1.45410156 C17.33551758 1.78410156 7.76551758 2.11410156 -2.09448242 2.45410156 C-3.08448242 4.43410156 -4.07448242 6.41410156 -5.09448242 8.45410156 C-6.08448242 8.78410156 -7.07448242 9.11410156 -8.09448242 9.45410156 C-8.42448242 10.44410156 -8.75448242 11.43410156 -9.09448242 12.45410156 C-11.15698242 14.14160156 -11.15698242 14.14160156 -13.09448242 15.45410156 C-13.75448242 15.12410156 -14.41448242 14.79410156 -15.09448242 14.45410156 C-14.47959961 13.77863281 -13.8647168 13.10316406 -13.23120117 12.40722656 C-12.42295898 11.51519531 -11.6147168 10.62316406 -10.78198242 9.70410156 C-9.98147461 8.82238281 -9.1809668 7.94066406 -8.35620117 7.03222656 C-6.10660486 4.64336839 -6.10660486 4.64336839 -4.8815918 2.31738281 C-3.09448242 0.45410156 -3.09448242 0.45410156 0 0 Z " fill="#FFFFFF" transform="translate(69.094482421875,3.5458984375)"/>
<path d="M0 0 C0.33 0 0.66 0 1 0 C1 5.94 1 11.88 1 18 C6.61 18 12.22 18 18 18 C14.34106495 20.43929003 11.59721667 20.26289673 7.375 20.1875 C6.68148437 20.18685547 5.98796875 20.18621094 5.2734375 20.18554688 C0.14043257 20.14043257 0.14043257 20.14043257 -1 19 C-1.10007008 16.17743509 -1.13875598 13.3847681 -1.125 10.5625 C-1.12886719 9.77294922 -1.13273437 8.98339844 -1.13671875 8.16992188 C-1.12663067 2.25326133 -1.12663067 2.25326133 0 0 Z " fill="#FFFFFF" transform="translate(119,148)"/>
<path d="M0 0 C9.57 0 19.14 0 29 0 C28.67 0.99 28.34 1.98 28 3 C27.67 2.67 27.34 2.34 27 2 C25.07521187 1.84193469 23.1450079 1.748865 21.21484375 1.68359375 C20.04501953 1.64169922 18.87519531 1.59980469 17.66992188 1.55664062 C15.82237305 1.49766602 15.82237305 1.49766602 13.9375 1.4375 C12.70193359 1.39431641 11.46636719 1.35113281 10.19335938 1.30664062 C7.12902665 1.20015802 4.06460927 1.09814576 1 1 C1.25224207 2.45988386 1.52427387 3.91635833 1.8046875 5.37109375 C1.95405762 6.18247803 2.10342773 6.9938623 2.25732422 7.82983398 C2.88299536 10.3798471 2.88299536 10.3798471 6.125 12.0625 C7.07375 12.371875 8.0225 12.68125 9 13 C9 13.33 9 13.66 9 14 C3.25 14.125 3.25 14.125 1 13 C0 9 0 9 0 0 Z " fill="#FFFFFF" transform="translate(96,95)"/>
<path d="M0 0 C2.31 0 4.62 0 7 0 C4.56968833 2.43031167 2.06519015 3.47457576 -1.02734375 4.90234375 C-3.06767744 6.03765814 -4.43663729 7.27981093 -6 9 C-5.34 9.66 -4.68 10.32 -4 11 C-4.99 11 -5.98 11 -7 11 C-7 11.99 -7 12.98 -7 14 C-8.98 14.33 -10.96 14.66 -13 15 C-12.67 14.01 -12.34 13.02 -12 12 C-11.01 11.67 -10.02 11.34 -9 11 C-7.77479736 7.99152582 -7.77479736 7.99152582 -7 5 C-6.01 5 -5.02 5 -4 5 C-3.67 3.68 -3.34 2.36 -3 1 C-2.01 1.33 -1.02 1.66 0 2 C0 1.34 0 0.68 0 0 Z " fill="#FFFFFF" transform="translate(154,129)"/>
<path d="M0 0 C7.12600133 -0.35368021 12.47059106 0.04328652 19 3 C19 3.66 19 4.32 19 5 C17.93072266 4.7834375 17.93072266 4.7834375 16.83984375 4.5625 C7.8133314 2.2219688 7.8133314 2.2219688 -0.7578125 4.12109375 C-2.63941839 5.62565956 -2.63941839 5.62565956 -5 8 C-5 6.35 -5 4.7 -5 3 C-3.35 2.67 -1.7 2.34 0 2 C0 1.34 0 0.68 0 0 Z " fill="#FFFFFF" transform="translate(142,157)"/>
<path d="M0 0 C0.5859375 1.90234375 0.5859375 1.90234375 1 4 C-0.375 5.5625 -0.375 5.5625 -2 7 C-2.33 7.99 -2.66 8.98 -3 10 C-4.99065541 11.01847486 -6.99248185 12.01517978 -9 13 C-11.09766406 14.5767994 -13.02828414 16.26301221 -15 18 C-13.66465724 15.05886531 -12.17535119 12.89154831 -9.9609375 10.546875 C-9.38085938 9.928125 -8.80078125 9.309375 -8.203125 8.671875 C-7.59984375 8.03765625 -6.9965625 7.4034375 -6.375 6.75 C-5.76398437 6.1003125 -5.15296875 5.450625 -4.5234375 4.78125 C-3.01971926 3.18354937 -1.51184263 1.59000851 0 0 Z " fill="#FFFFFF" transform="translate(33,42)"/>
<path d="M0 0 C-0.3125 1.875 -0.3125 1.875 -1 4 C-4 6 -4 6 -7 6 C-7 6.66 -7 7.32 -7 8 C-9.31 8.33 -11.62 8.66 -14 9 C-10.44113418 5.11760093 -5.62095916 0 0 0 Z " fill="#FFFFFF" transform="translate(155,111)"/>
<path d="M0 0 C0.625 1.875 0.625 1.875 1 4 C0.34 4.66 -0.32 5.32 -1 6 C-1.46006346 8.20250992 -1.46006346 8.20250992 -1.625 10.625 C-1.69976562 11.44226563 -1.77453125 12.25953125 -1.8515625 13.1015625 C-1.90054688 13.72804688 -1.94953125 14.35453125 -2 15 C-1.34 15 -0.68 15 0 15 C0.33 16.65 0.66 18.3 1 20 C0.34 20 -0.32 20 -1 20 C-3.66467584 15.44784545 -4.56458217 12.2694336 -4 7 C-1.77419355 1.77419355 -1.77419355 1.77419355 0 0 Z " fill="#FFFFFF" transform="translate(247,77)"/>
<path d="M0 0 C-3.71823169 1.19143338 -5.22133158 0.50794894 -8.71875 -1.1640625 C-13.58941324 -2.94886033 -18.87606016 -3.34506032 -24 -4 C-24 -4.33 -24 -4.66 -24 -5 C-15.38681309 -7.15329673 -7.83041822 -3.30546343 0 0 Z " fill="#FFFFFF" transform="translate(203,49)"/>
<path d="M0 0 C0.99 0.66 1.98 1.32 3 2 C2.401875 2.226875 1.80375 2.45375 1.1875 2.6875 C-1.75408813 4.45245288 -2.53508822 5.87485487 -4 9 C-4.49222784 12.09890471 -4.60093993 15.17902542 -4.6875 18.3125 C-4.72166016 19.14845703 -4.75582031 19.98441406 -4.79101562 20.84570312 C-4.87305461 22.89667772 -4.9382151 24.94831538 -5 27 C-5.33 27 -5.66 27 -6 27 C-7.03368414 8.01083943 -7.03368414 8.01083943 -3 2.8125 C-1.3125 1.08203125 -1.3125 1.08203125 0 0 Z " fill="#FFFFFF" transform="translate(10,68)"/>
<path d="M0 0 C1.41623216 -0.05447047 2.83308191 -0.09300508 4.25 -0.125 C5.03890625 -0.14820313 5.8278125 -0.17140625 6.640625 -0.1953125 C9.20731941 0.0171622 10.7916067 0.71345895 13 2 C12.04738281 2.13277344 11.09476563 2.26554687 10.11328125 2.40234375 C8.85902344 2.57894531 7.60476562 2.75554688 6.3125 2.9375 C4.45044922 3.19853516 4.45044922 3.19853516 2.55078125 3.46484375 C-0.32474548 3.89822897 -3.15644813 4.39649282 -6 5 C-5.34 4.67 -4.68 4.34 -4 4 C-4 3.34 -4 2.68 -4 2 C-2.68 2 -1.36 2 0 2 C0 1.34 0 0.68 0 0 Z " fill="#FFFFFF" transform="translate(156,57)"/>
<path d="M0 0 C3 2 3 2 4 5 C4.54184779 9.74338885 4.66079766 12.98815358 2 17.0625 C1.34 17.701875 0.68 18.34125 0 19 C0.94300518 13.20725389 0.94300518 13.20725389 1.6875 10.5 C2.09486168 7.24110658 1.14816125 5.03925036 0 2 C0 1.34 0 0.68 0 0 Z " fill="#FFFFFF" transform="translate(266,78)"/>
<path d="M0 0 C5.60461531 0.42089996 10.72086547 0.91613111 16 3 C16 3.99 16 4.98 16 6 C14.26982492 5.54548816 12.54090123 5.08621143 10.8125 4.625 C9.84957031 4.36976563 8.88664063 4.11453125 7.89453125 3.8515625 C5.17789793 3.05233704 2.60862825 2.0968638 0 1 C0 0.67 0 0.34 0 0 Z " fill="#FFFFFF" transform="translate(161,162)"/>
<path d="M0 0 C0.66 0 1.32 0 2 0 C1.6875 1.9375 1.6875 1.9375 1 4 C0.01 4.33 -0.98 4.66 -2 5 C-2.33 5.99 -2.66 6.98 -3 8 C-5.0625 9.6875 -5.0625 9.6875 -7 11 C-7.66 10.67 -8.32 10.34 -9 10 C-7.5484451 8.32742645 -6.08855591 6.66208242 -4.625 5 C-3.81289063 4.071875 -3.00078125 3.14375 -2.1640625 2.1875 C-1.44992188 1.465625 -0.73578125 0.74375 0 0 Z " fill="#FFFFFF" transform="translate(63,8)"/>
<path d="M0 0 C0.66 0.33 1.32 0.66 2 1 C-1.41662234 6.10070214 -4.06107964 9.73755415 -10 12 C-8.52278578 8.54798361 -6.56205999 6.35038064 -3.875 3.75 C-3.15054688 3.04359375 -2.42609375 2.3371875 -1.6796875 1.609375 C-1.12539062 1.07828125 -0.57109375 0.5471875 0 0 Z " fill="#FFFFFF" transform="translate(134,124)"/>
<path d="M0 0 C0.33 0 0.66 0 1 0 C1.07476562 0.61488281 1.14953125 1.22976562 1.2265625 1.86328125 C1.63512769 4.37475548 2.08892513 6.62108228 3 9 C5.95234447 11.14665717 5.95234447 11.14665717 9 12 C9 12.33 9 12.66 9 13 C3.25 13.125 3.25 13.125 1 12 C-0.5183512 8.204122 -0.06687163 4.0122978 0 0 Z " fill="#FFFFFF" transform="translate(96,96)"/>
<path d="M0 0 C4.44621124 4.13957599 7.1302597 7.91181789 8 14 C7.01 14.495 7.01 14.495 6 15 C6 13.35 6 11.7 6 10 C5.01 9.67 4.02 9.34 3 9 C3 7.68 3 6.36 3 5 C2.01 4.67 1.02 4.34 0 4 C0 2.68 0 1.36 0 0 Z " fill="#FFFFFF" transform="translate(213,59)"/>
<path d="M0 0 C0.33 0 0.66 0 1 0 C1 1.65 1 3.3 1 5 C-3.455 5.495 -3.455 5.495 -8 6 C-8.33 5.34 -8.66 4.68 -9 4 C-8.43410156 3.87882813 -7.86820313 3.75765625 -7.28515625 3.6328125 C-6.18494141 3.38144531 -6.18494141 3.38144531 -5.0625 3.125 C-4.33160156 2.96257812 -3.60070312 2.80015625 -2.84765625 2.6328125 C-0.79299706 2.17038477 -0.79299706 2.17038477 0 0 Z " fill="#FFFFFF" transform="translate(247,153)"/>
<path d="M0 0 C4.97963801 4.81900452 4.97963801 4.81900452 5.0625 9.625 C5.041875 10.73875 5.02125 11.8525 5 13 C4.67 13 4.34 13 4 13 C4 11.35 4 9.7 4 8 C3.01 7.67 2.02 7.34 1 7 C0.67 4.69 0.34 2.38 0 0 Z " fill="#FFFFFF" transform="translate(154,77)"/>
<path d="M0 0 C0.66 0.66 1.32 1.32 2 2 C0.58622218 2.36552803 -0.83120576 2.71695495 -2.25 3.0625 C-3.03890625 3.25972656 -3.8278125 3.45695312 -4.640625 3.66015625 C-7.10394822 4.01497267 -8.65604132 3.76877544 -11 3 C-7.19819614 0.31637374 -4.65620796 -0.51735644 0 0 Z " fill="#FFFFFF" transform="translate(259,73)"/>
<path d="M0 0 C0.66 0.33 1.32 0.66 2 1 C1.34 2.98 0.68 4.96 0 7 C-1.65 7.33 -3.3 7.66 -5 8 C-4.45773019 4.20411134 -2.79872437 2.52788007 0 0 Z " fill="#FFFFFF" transform="translate(133,53)"/>
<path d="M0 0 C1.98 0 3.96 0 6 0 C4.64244119 1.95149079 3.46186324 2.87644423 1.16015625 3.4921875 C-3.32893817 4.17767305 -4.67975842 4.16012079 -9 2 C-4.545 1.505 -4.545 1.505 0 1 C0 0.67 0 0.34 0 0 Z " fill="#FFFFFF" transform="translate(260,97)"/>
<path d="M0 0 C0 0.66 0 1.32 0 2 C-0.99 2 -1.98 2 -3 2 C-3.33 2.99 -3.66 3.98 -4 5 C-7 7 -7 7 -9.1875 6.625 C-9.785625 6.41875 -10.38375 6.2125 -11 6 C-9.54550599 4.9944239 -8.08627557 3.99569565 -6.625 3 C-5.40683594 2.1646875 -5.40683594 2.1646875 -4.1640625 1.3125 C-2 0 -2 0 0 0 Z " fill="#FFFFFF" transform="translate(177,98)"/>
<path d="M0 0 C0.66 0 1.32 0 2 0 C2 4.62 2 9.24 2 14 C1.34 14 0.68 14 0 14 C-0.33 14.66 -0.66 15.32 -1 16 C-0.835 15.030625 -0.67 14.06125 -0.5 13.0625 C0.13396273 8.70512237 0.0896672 4.39369296 0 0 Z " fill="#FFFFFF" transform="translate(185,72)"/>
<path d="M0 0 C1.32 0.33 2.64 0.66 4 1 C2.02 3.31 0.04 5.62 -2 8 C-2.66 7.01 -3.32 6.02 -4 5 C-3.01 5 -2.02 5 -1 5 C-0.67 3.35 -0.34 1.7 0 0 Z " fill="#FFFFFF" transform="translate(45,50)"/>
<path d="M0 0 C-3.40431947 2.26954631 -5.16524202 2.36549949 -9.1875 2.625 C-10.27417969 2.69976562 -11.36085937 2.77453125 -12.48046875 2.8515625 C-13.31191406 2.90054688 -14.14335937 2.94953125 -15 3 C-9.84110855 -0.43926097 -6.07788122 -1.44711458 0 0 Z " fill="#FFFFFF" transform="translate(163,44)"/>
<path d="M0 0 C0.33 0 0.66 0 1 0 C1 1.98 1 3.96 1 6 C0.34 6 -0.32 6 -1 6 C-1.33 7.65 -1.66 9.3 -2 11 C-2.66 11 -3.32 11 -4 11 C-3.5247412 9.35303396 -3.04468109 7.70745272 -2.5625 6.0625 C-2.29566406 5.14597656 -2.02882813 4.22945312 -1.75390625 3.28515625 C-1 1 -1 1 0 0 Z " fill="#FFFFFF" transform="translate(123,136)"/>
<path d="M0 0 C1.32 0.66 2.64 1.32 4 2 C3.01 2.33 2.02 2.66 1 3 C1 3.99 1 4.98 1 6 C-0.98 6.33 -2.96 6.66 -5 7 C-4.67 6.01 -4.34 5.02 -4 4 C-3.01 3.67 -2.02 3.34 -1 3 C-0.67 2.01 -0.34 1.02 0 0 Z " fill="#FFFFFF" transform="translate(146,137)"/>
<path d="M0 0 C0 0.99 0 1.98 0 3 C-2.5 5.1875 -2.5 5.1875 -5 7 C-5 5.35 -5 3.7 -5 2 C-3.35 1.34 -1.7 0.68 0 0 Z " fill="#FFFFFF" transform="translate(41,58)"/>
<path d="M0 0 C1.35015859 4.05047576 0.62084998 6.7920168 0 11 C-0.99 11 -1.98 11 -3 11 C-2.69078116 9.54096742 -2.37751201 8.08279278 -2.0625 6.625 C-1.88847656 5.81289062 -1.71445313 5.00078125 -1.53515625 4.1640625 C-1 2 -1 2 0 0 Z " fill="#FFFFFF" transform="translate(121,67)"/>
<path d="M0 0 C0 0.33 0 0.66 0 1 C-3.63 0.67 -7.26 0.34 -11 0 C-11 -0.33 -11 -0.66 -11 -1 C-6.58937864 -2.0257259 -4.07369424 -2.03684712 0 0 Z " fill="#FFFFFF" transform="translate(190,45)"/>
</svg>
