<svg xmlns="http://www.w3.org/2000/svg" xmlns:xlink="http://www.w3.org/1999/xlink" width="236" height="485" viewBox="0 0 236 485"><defs><clipPath id="b"><rect width="236" height="485"/></clipPath></defs><g id="a" clip-path="url(#b)"><g transform="translate(-897 -87.009)"><circle cx="9" cy="9" r="9" transform="translate(1081 554)" fill="#fff"/><circle cx="6" cy="6" r="6" transform="translate(1016 461)" fill="#fff"/><circle cx="4" cy="4" r="4" transform="matrix(-0.998, -0.07, 0.07, -0.998, 1103.881, 445.49)" fill="#fff"/><circle cx="3" cy="3" r="3" transform="translate(994 552)" fill="#fff"/><circle cx="3" cy="3" r="3" transform="matrix(-0.998, -0.07, 0.07, -0.998, 1133.027, 355.98)" fill="#fff"/><circle cx="8" cy="8" r="8" transform="translate(990 295)" fill="#fff"/><circle cx="5" cy="5" r="5" transform="translate(919 198)" fill="#fff"/><circle cx="4" cy="4" r="4" transform="matrix(-0.998, -0.07, 0.07, -0.998, 1006.849, 182.931)" fill="#fff"/><circle cx="3" cy="3" r="3" transform="translate(897 289)" fill="#fff"/><circle cx="3" cy="3" r="3" transform="matrix(-0.998, -0.07, 0.07, -0.998, 1035.995, 93.422)" fill="#fff"/></g></g></svg>